<svg id="Layer_2" data-name="Layer 2" xmlns="http://www.w3.org/2000/svg" viewBox="0 0 108.88 32.82"><defs><style>.cls-1{fill:#231f20;}</style></defs><title>jh-16v2pro</title><path class="cls-1" d="M14.43,3.39,11.91,20.16c-.5,3.31-1.67,8.4-7.83,8.4A11.29,11.29,0,0,1,0,27.78l1-6.92a2.66,2.66,0,0,0,2.37,1.44c1.77,0,2.14-2,2.35-3.45L8.08,3.39ZM25,12.25h-3l1.33-8.86H16.92L13.21,28.14h6.35l1.51-10h3l-1.51,10h6.35L32.64,3.39H26.29Zm9.32,20.57h1.59L40.8,0H39.22ZM47.35,6.25h2.3L46.36,28.14h3.05L53.13,3.39H47.77Zm17-2.86L58.17,14l.05.07a3.92,3.92,0,0,1,2.56-1.12c3.89,0,3.39,4.76,2.94,7.78-.57,3.81-1.63,7.75-6.21,7.75s-4.39-4.56-3.82-8.37c1-6.73,3.71-10.8,7.27-16.67Zm-7.55,17.3c-.21,1.41-.66,4.79,1.21,4.79s2.34-3.35,2.55-4.76.79-4.86-1.11-4.86C59,15.86,57.54,15.7,56.79,20.69Zm11.79-3.62L73.17,3.41H71.54L70,8.23l-1.38,4.6-.21.85h0l.06-10.27H66.74l.46,13.66ZM77.22,3.25c-2.51,0-3.06,1.94-3.38,4.11l-.07.49h1.75l.05-.36c.08-.56.22-2.61,1.39-2.61.89,0,1,.89.91,1.63a10.76,10.76,0,0,1-1.46,3.55l-4.2,7h5.7l.24-1.58H74.93l1.43-2.21c1.18-1.79,2.93-4.62,3.23-6.67S79.35,3.25,77.22,3.25Zm13.56,4c-.41,2.75-1.63,4-4.28,3.92l-.9,6H83.89l2-13.58h2C89.44,3.56,91.3,3.71,90.77,7.2ZM87.64,5.09H87.4l-.67,4.5c1.45.11,2-.74,2.22-2.25C89.12,6.12,88.94,5.09,87.64,5.09ZM97.27,7c-.19,1.28-.84,3.22-2.3,3.49l1.38,6.61H94.58l-1.33-6.64h0l-1,6.64H90.51l2-13.58h2C95.84,3.56,97.78,3.63,97.27,7Zm-3-1.95H94l-.67,4.48c1.27.09,1.84-.77,2-2.14S95.6,5.05,94.3,5.09Zm10.36,5.26c-.37,2.45-1.08,7-4.39,7s-2.67-4.52-2.3-7,1.08-7,4.39-7S105,7.9,104.66,10.35ZM102.1,5.07c-1.35,0-1.9,2.39-2.33,5.28s-.6,5.28.75,5.28,1.9-2.39,2.33-5.28S103.45,5.07,102.1,5.07ZM64.58,19.33H79v-.91H64.58ZM105.28,3.67h.59V5.4h.26V3.67h.6V3.45h-1.44Zm3.48-.21h-.32l-.35.94c-.09.25-.16.46-.21.66h0c-.05-.2-.12-.42-.2-.66l-.33-.94H107l-.14,1.95h.24l.05-.84c0-.29,0-.62,0-.86h0c.05.23.13.48.22.76l.32.93H108l.34-.95c.1-.27.18-.52.25-.74h0c0,.24,0,.57,0,.84l0,.86h.25Z"/></svg>