<svg id="Layer_2" data-name="Layer 2" xmlns="http://www.w3.org/2000/svg" viewBox="0 0 110.27 32.82"><defs><style>.cls-1{fill:#231f20;}</style></defs><title>jh-13v2pro</title><path class="cls-1" d="M14.43,3.39,11.91,20.16c-.5,3.31-1.67,8.4-7.83,8.4A11.29,11.29,0,0,1,0,27.78l1-6.92a2.66,2.66,0,0,0,2.37,1.44c1.77,0,2.14-2,2.35-3.45L8.08,3.39ZM25,12.25h-3l1.33-8.86H16.92L13.21,28.14h6.35l1.51-10h3l-1.51,10h6.35L32.64,3.39H26.29Zm9.32,20.57h1.59L40.8,0H39.22ZM47.77,3.39l-.43,2.86h2.3L46.36,28.14h3.05L53.13,3.39Zm13.59-.3c-4.2,0-5.17,3-5.74,6.7l0,.23h3l.11-.75C58.89,8,59.39,6,61,6c1.81,0,1.41,2.66,1.21,4-.41,2.76-1.13,3.77-3.77,3.77h-.37l-.44,3h.9c2.41-.1,2.47,2,2.15,4.1-.25,1.64-.7,4.63-2.91,4.63-1.46,0-1.75-1.38-1.55-2.76l.12-.79h-3l-.11.75c-.55,3.64.54,5.74,4.09,5.74,4.26,0,5.89-3.35,6.48-7.32.37-2.43.44-5-2-5.71v-.07c2.58-.79,3.15-3.54,3.49-5.84C65.82,5.92,65.28,3.09,61.36,3.09Zm8.46,14L74.41,3.41H72.78L71.27,8.23l-1.38,4.6-.21.85h0l.06-10.27H68l.46,13.66ZM78.46,3.25c-2.51,0-3.06,1.94-3.38,4.11L75,7.85h1.75l.05-.36c.08-.56.22-2.61,1.39-2.61.89,0,1,.89.91,1.63a10.76,10.76,0,0,1-1.46,3.55l-4.2,7h5.7l.24-1.58H76.18l1.43-2.21c1.18-1.79,2.93-4.62,3.23-6.67S80.59,3.25,78.46,3.25ZM92,7.2c-.41,2.75-1.63,4-4.28,3.92l-.9,6H85.13l2-13.58h2C90.68,3.56,92.54,3.71,92,7.2ZM88.88,5.09h-.24L88,9.59c1.45.11,2-.74,2.22-2.25C90.37,6.12,90.18,5.09,88.88,5.09ZM98.51,7c-.19,1.28-.84,3.22-2.3,3.49l1.38,6.61H95.82l-1.33-6.64h0l-1,6.64H91.76l2-13.58h2C97.09,3.56,99,3.63,98.51,7Zm-3-1.95h-.27L94.6,9.57c1.27.09,1.84-.77,2-2.14S96.85,5.05,95.54,5.09Zm10.36,5.26c-.37,2.45-1.08,7-4.39,7s-2.67-4.52-2.3-7,1.08-7,4.39-7S106.27,7.9,105.91,10.35Zm-2.56-5.28c-1.35,0-1.9,2.39-2.33,5.28s-.6,5.28.75,5.28,1.9-2.39,2.33-5.28S104.7,5.07,103.35,5.07ZM65.82,19.33h14.4v-.91H65.82ZM106.67,3.58h.59V5.32h.26V3.58h.6V3.37h-1.44Zm3.48-.21h-.32l-.35.94c-.09.25-.16.46-.21.66h0c-.05-.2-.12-.42-.2-.66l-.33-.94h-.32l-.14,1.95h.24l.05-.84c0-.29,0-.62,0-.86h0c.05.23.13.48.22.76l.32.93h.19l.34-.95c.1-.27.18-.52.25-.74h0c0,.24,0,.57,0,.84l0,.86h.25Z"/></svg>