<svg id="Layer_2" data-name="Layer 2" xmlns="http://www.w3.org/2000/svg" viewBox="0 0 92.32 30.45"><defs><style>.cls-1{fill:#231f20;}</style></defs><title>roxanne</title><path class="cls-1" d="M33,19c1.39.41,1.51.17,2.86-.19.2-.05.34-.61,0-.89-.12-.11-.37-.34-.5-.44-.52-.41-.74.24-1.41-.09,1.26-2.14,1.22-4.25-1.87-4.67-6.66,2.85-9.94,12.59-19.45,10.73-1.68-1.46-1.83-4.55-.39-7a8.6,8.6,0,0,1,2.08-.42c.7-.16,1.39-.32,2.09-.5q2-.53,4-1.19c1.34-.44,2.7-.89,4-1.46s2.17-1.27,3.25-1.85c.92-.5,1.86-1,2.75-1.53a10.08,10.08,0,0,0,4.39-5.18A3.43,3.43,0,0,0,33.16.57c-3-1.08-5.67-.36-8.73,0a26.57,26.57,0,0,0-3.62.65,48.48,48.48,0,0,0-5.59,1.43A47.68,47.68,0,0,0,6.29,6.88c-.37.24-2.08,1.35-1.61,2S7.84,8,8.31,7.72q2-1,4.19-1.86A89.71,89.71,0,0,1,28.15,1.74a15.62,15.62,0,0,1,3.39.1c4.34.24,0,4.66-1.48,5.69a43,43,0,0,1-4,2.31A46.93,46.93,0,0,1,18.74,13a33.58,33.58,0,0,1-5.36,1.32c-.46.07-.93.07-1.38.17,0,0-1.41.23-1-.2.69-.7,1.34-1.44,2-2.19,1.13-1.33,2.21-2.7,3.44-3.93a16.27,16.27,0,0,1,1.9-1.65c.46-.33,1.71-.75,1.2-1.52a1.07,1.07,0,0,0-.82-.42,1.59,1.59,0,0,0-1,.38c-.89.63-1.61,1.49-2.44,2.2a77,77,0,0,0-8.09,7.79A63.86,63.86,0,0,0,.05,24.56c-.4.68,1.62,2.45,2,1.84a41.7,41.7,0,0,1,6.31-8.81c.63,2.77,1,5.7,3.7,7.3,5.5,2.18,8.12-1.08,11.56-2.74.11-.05.77,1.26.93,1.39a3.1,3.1,0,0,0,1.76.65,5.27,5.27,0,0,0,3.76-1.79,22.48,22.48,0,0,0,1.58-1.74A12.05,12.05,0,0,1,33,19Zm-4.61,2.17a8.09,8.09,0,0,1-1.53,1.23c-.4.17-1.19,0-1.24-.5a3.66,3.66,0,0,1,.73-1.8,11.62,11.62,0,0,1,1.25-1.72c.89-1,1.93-1.92,2.78-3l.14,0c.41.79-.08,2.09.69,2.68C31.47,18.35,28.67,21,28.39,21.19Zm3.94-4.39c-.63-.52,0-2.18.94-2C33.11,15.73,32.6,16.06,32.33,16.8Zm47.75,3.76.21-.17A18.73,18.73,0,0,1,82.18,19c.67-.43,1.36-.85,2-1.3A13.1,13.1,0,0,0,86,16.22a8.33,8.33,0,0,0,1.33-2A2.77,2.77,0,0,0,87.79,13c0-.91-.7-1.29-1.49-1.37h-.12a2.67,2.67,0,0,0-1.42.21,11,11,0,0,0-1.24.83,10.21,10.21,0,0,0-2.15,2.41c-.68.91-1.23,1.91-1.91,2.83a10.35,10.35,0,0,1-2.14,2.34,5.48,5.48,0,0,1-1.3.72,3.68,3.68,0,0,1-.74.18c-.07,0-.79,0-.8.06.66-3.5,3.59-5,5.31-7.65a.85.85,0,0,0-.81-.77,1.85,1.85,0,0,0-1.12.43c-1,.67-2,1.37-2.91,2.11-.48.37-.95.74-1.45,1.08-.25.17-.51.34-.77.5s-.73.3-.78.43A16.76,16.76,0,0,1,74.07,14c0-.59-.4-.92-1-1.17-3.2,2.51-4.35,8.41-9,8.51,0,0,.31-1,.35-1.1a7.86,7.86,0,0,1,.55-1,20.74,20.74,0,0,1,2.62-3.1c.41-.44,2.62-2.64,1.19-2.93a2.05,2.05,0,0,0-1.07.21,10.89,10.89,0,0,0-3.22,2.11c-.49.43-1,.87-1.49,1.28a9.35,9.35,0,0,1-.77.56c-.12.07-.78.36-.8.47.29-1.37,1.59-2.44,2.34-3.5,0-.65-1-1.18-1.7-.93A20.85,20.85,0,0,1,54.24,22c-.24.21-.6.4-.72.37s-.1-.28,0-.58a9.3,9.3,0,0,1,.89-2,21.35,21.35,0,0,1,2.11-2.73c.37-.45.74-.9,1.09-1.36a1.46,1.46,0,0,0,.25-1.45,2.56,2.56,0,0,0-.45-1,1.38,1.38,0,0,0-.87-.32,7.24,7.24,0,0,0-.76-.08,5.07,5.07,0,0,0-1.53.17,8.76,8.76,0,0,0-4.44,3.27,16.72,16.72,0,0,0-2.38,5.46C47,23,48.71,23.61,49.55,23.67a12,12,0,0,0,2.16-1.51c.68,2.23,3.39,1.37,4.53.28a10.23,10.23,0,0,0,1.38.46c2.19-1.59,3.8-4.22,6.25-5.35-.37,1.18-1.49,2.46-1.44,4.35.92,1.62,3.36,1,4.37.31.33.09.5.27.8.37,2.82-.86,4.06-4.05,6.68-5.54,0,0-.16.5-.43,1-2.35,4.47,2.41,5.63,4.4,2.78.27.14.23.13.49.24,2.67,2.81,7.15.27,8-2.52C84.19,18.41,82.63,22.63,80.09,20.56Zm5.63-7.19c-.29,2.14-2.7,3.14-4.18,4.42C82.45,15.6,84.15,14.66,85.71,13.37ZM49.29,22.16a6.59,6.59,0,0,0,0-1.15,4.13,4.13,0,0,1,.28-1.07,9.76,9.76,0,0,1,2.46-3.27,30.89,30.89,0,0,1,2.4-2.2l.48-.34c.18-.12.35-.25.53-.35a1.27,1.27,0,0,1,1.35,0A27.21,27.21,0,0,1,49.29,22.16Zm1.09,2.64a1.86,1.86,0,0,1,0,1.45c-1.62,2.51-5.77,4-8.89,3.08-1.29-.36-2.5-1.4-3.22-3.71-.14-.47-.26-.87-.38-.93s-.85.31-1,.36a13.55,13.55,0,0,0-4.2,3.53c-.51.56-.67,1.19-1.21,1.71-.11,0-.33.25-.76.13S30,30.2,30,30.18c-.36-.16-.57-.4-.42-1a80.22,80.22,0,0,1,9.38-8.54.46.46,0,0,0,.13-.16c.34-.72.72-1.46,1.09-2.16a28,28,0,0,0,2.76-6.75.46.46,0,0,0-.16-.46.45.45,0,0,0-.48-.05,8.6,8.6,0,0,0-3.12,2.56,14.4,14.4,0,0,1-1.69,1.76c-.31.25-.51.54-.81.53s-.89,0-1.05-.26a1.3,1.3,0,0,1-.15-.81c.15-.31.7-.44,1.11-.66,1.11-.59.75-.52,2-1.59.66-.58,1.28-1.18,1.9-1.79C41.27,10,42.08,9.44,43,8.71l.73-.59c.26-.22.52-.45.79-.65a1.45,1.45,0,0,1,1.25-.14A2.15,2.15,0,0,1,46.81,8a3.21,3.21,0,0,1,.44,2.09h0c0,.07,0,.14,0,.22s0,.41,0,.62v1.7c.09-.05,1.09-.47,1.18-.52l.24-.12a5.63,5.63,0,0,0,.77-.56,12.53,12.53,0,0,0,1.06-1.07l.31-.33.06-.07A5.57,5.57,0,0,1,53.41,8a2.06,2.06,0,0,1,.81,0l.26,0,.32.06c.17,0,.21.1.24.15a.86.86,0,0,1,.1.55A27.06,27.06,0,0,1,50.22,13a76.72,76.72,0,0,0-6.43,5.71,34.72,34.72,0,0,0-2.3,6.22.44.44,0,0,0,0,.07A3.92,3.92,0,0,0,42,27.7a.72.72,0,0,0,.39.24,4.18,4.18,0,0,0,.87.1h.09A4.36,4.36,0,0,0,44.45,28a4.9,4.9,0,0,0,1.73-.72,11.1,11.1,0,0,0,1.42-1.14,10.86,10.86,0,0,1,1.25-1l.25-.17a6.13,6.13,0,0,1,.52-.33.6.6,0,0,1,.44-.08A.53.53,0,0,1,50.38,24.8ZM88.72,11.22h1.44v.21h-.6v1.74h-.26V11.44h-.59Zm3.6,1.95h-.25l0-.86c0-.27,0-.6,0-.84h0c-.07.23-.15.47-.25.74l-.34.95h-.19l-.32-.93c-.09-.28-.17-.53-.22-.76h0c0,.24,0,.57,0,.86l-.05.84h-.24l.14-1.95h.32l.33.94c.08.24.15.45.2.66h0c.05-.2.12-.41.21-.66l.35-.94h.32Z"/></svg>