<svg id="Layer_1" data-name="Layer 1" xmlns="http://www.w3.org/2000/svg" viewBox="0 0 354.42 180.46"><title>lola</title><path d="M196.07,149.84c3.2,5.33,11.12,8.16,19,5.28,11-4.05,20.67-10.26,29.76-16.32,2.9-1.93,7.26-3.81,8.88-7,.76-1.47,1-4.23,0-5.52-1.06-1.65-2.67-2.26-5.52-2.16-2.57,2.66-6.42,4.46-9.6,6.48a235.07,235.07,0,0,1-21.12,12.24c-3,1.5-8.56,3.53-12.48,1.68-1.84-3.66,1.61-10.17,3.36-14.16,4.48-10.2,10.68-18.58,16.8-27.12,4.85-6.76,10.25-13.17,15.6-19.44,2.64-3.1,5.41-6,7.92-9.36.72-.64,2.23-2.28,3.11-3.23s2.67-3,4.57-5.17c1-1,2.91-3,4.66-4.81s7.12-7.36,9-9.26,5.06-4.92,8.3-7.9,9.17-8.34,16.41-14.25a153.43,153.43,0,0,1,22.68-15.22c5.79-3,10.91-4.08,12.69-4s-.75,3-3.67,7.09c-3,3.75-9.44,10.68-14.41,15.66-7.55,7.55-15.81,15.16-20.2,18.92s-8.09,7.31-11.45,10.11S272.53,69,267.7,73.2s-10.26,8.44-16.43,13.52c-6.47,5.32-14.16,11.46-19.79,15.77s-7.74,5.68-8,8,.06,3.24.94,4.39,1.65,1.83,4.25,1.79,4.21-2.68,7.73-5.19,11.37-9,17.28-13.68c12.77-10.19,29.23-24.53,34.78-29.24s8.76-8,12.5-11.08c2.9-2.42,6.33-5.74,8.44-7.72s3.34-3.09,5.93-5.51,5.95-5.89,7.71-7.64,4.86-5.36,6.7-7.51,7.47-8.34,10.1-14.81,1.42-9.88-2.88-13.2c-1.73-1.34-5.56-1-8.4-1a20.92,20.92,0,0,0-5.16.92c-1.41.44-4.33,1.44-7.37,2.76a124.83,124.83,0,0,0-14.79,8.65,196.05,196.05,0,0,0-16.71,13c-5,4.27-9.7,8.51-12.29,10.93s-6.41,6.1-9.45,9.14-6.45,6.07-9.12,9.6c-1.28,1.2-3,3-5.2,5.36s-6.07,6.33-9.24,10.07S230.12,81,226.69,85.32s-6.1,7.56-11,14.56-14.43,20.6-19.11,33.16C194.91,137.43,193.45,145.48,196.07,149.84Zm-97.92-26.4c10.7-16.05,21.1-32.57,31.44-49,3.62-5.74,7.54-11.54,11.76-17a82.43,82.43,0,0,1,11.76-12.72c2-1.7,6.24-5.54,11.28-4.56a8.36,8.36,0,0,1,6.24,4.56c1.68,3.57,1.67,8.85.24,13.68-3,10-9.53,18.26-18.72,22.08-1.39.58-5.67,1.63-7.68,1.2-2.77-.59-5.63-1.08-7.68.48-2.6,2-2.38,7.65.48,9.12,5.45,2.79,14.14,1.11,18.48-.72C168.87,85,176.88,73,180.95,58.4a28,28,0,0,0,.48-11.52c-.58-2.65-.52-4.53-1.44-6.72-2.78-6.65-9.06-11-18.72-10.8l-5,1.44A48.22,48.22,0,0,0,145.67,38a87.62,87.62,0,0,0-8.4,8.88c-3,3.65-5.63,6.62-8.4,10.56-4.05,5.77-7.49,11.77-11.28,17.76-8,12.62-16.14,25.23-24.24,37.92-9.62,15.07-20,29.34-32.88,41.52-6.36,6-13.9,11.44-23.52,14.16-11.54,3.27-23.18-1.5-26.4-9.12-2.62-6.2,1.66-12.95,5.28-15.36a21.66,21.66,0,0,1,5-2.16,15.92,15.92,0,0,1,7.2-1,59.42,59.42,0,0,1,22.56,8.64c2.08,1.27,4.21,2.77,5.76,3.6,4.54,0,4.65-2.39,6.48-5,0-2.87-1.19-4.5-4.32-6.24s-6.89-3.83-9.12-5a69.78,69.78,0,0,0-16.56-6.48c-11.26-2.81-22.8,3.55-27.12,9.36-3.4,4.56-7.39,12.57-5,21.12a26.54,26.54,0,0,0,3.6,7.68c.8,1.2,1.53,2.74,2.64,3.6a38.2,38.2,0,0,0,11.52,6.48c15.65,5.1,31-3.23,39.36-9.6C73.75,157.2,86.91,140.3,98.15,123.44Zm43,2.88c-4.1,8.11-7.53,23.68,1.2,30,7.2,5.22,18.58,1.61,25-1.92,12.75-7.06,23.13-20.73,29-34.8,2-4.88,4.31-14.18,1-19.68a13.6,13.6,0,0,0-5-4.8c-1-.44-2.06-.4-2.88-1-4-.13-6,1.93-6,5.76a4.12,4.12,0,0,0,.48,2.64,4.36,4.36,0,0,0,3.12,2.64c1.16.22,2,.31,2.4,1.2a18.87,18.87,0,0,1-.72,6.72,38,38,0,0,1-2.88,7.2,63.82,63.82,0,0,1-21.12,23.28c-3.15,2.08-6.22,3.92-10.56,4.56-1.45.21-4.09.17-5.28-.48s-2.67-3.4-2.16-7a40.73,40.73,0,0,1,6-16.56c6.89-11.28,14.69-20.4,25.68-27.6,2.64-1.73,9.87-5.88,14.88-4.32a7,7,0,0,1,4.56,4.32,15.86,15.86,0,0,0,1.44,3.84c.63,1,1.51,1.18,2.4,1.92a5.86,5.86,0,0,0,5.76-3.84c1.52-2.12-.44-5.69-1.2-7.2-2.87-5.71-6.89-10-15.36-10.08a40.65,40.65,0,0,0-7.68,1.68,52.67,52.67,0,0,0-9.84,4.8C159,96.68,148.94,110.8,141.11,126.32Zm149.76-20.88c6.6-5.43,14-9.86,20.64-12,3.94-1.27,10-1.3,13.68.24,1.86.79,3.81,2.58,5,3.12,1.9.82,4.66-.8,5.28-1.68,2.12-3,1.52-5.94-.48-7.68-4.13-3.59-10.11-5.91-18-5.76a63.55,63.55,0,0,0-7.44,1.44,44.53,44.53,0,0,0-12,5,114.32,114.32,0,0,0-36,35c-4.06,6.11-12.32,19.26-5.76,28.32,2.08,2.88,7.26,5.23,12.72,3.84,6.85-1.74,12.89-6.91,15.17-8.89s4.5-4,4-6.82a6.14,6.14,0,0,0-3.89-4.66c-1.95-.61-3.16.49-4.71,2.15a47.14,47.14,0,0,1-6.95,5.49c-2.49,1.7-6.88,3.15-8.46,1.49s1.94-9.75,6.85-17.11C273.44,122.68,281.4,113.23,290.87,105.44Zm15.84,46.32c9.69-4.2,23.22-14,25.92-15.93,1.5-1.05,5.31-3.47,7.2-5.43,1.35-1.4,1.12-4.31.93-5a4.78,4.78,0,0,0-4.53-3.6c-2.4.09-4.77,2.43-6.24,3.48s-10.41,7.38-13.2,9.09-8.46,5-10.59,6.09a21.4,21.4,0,0,1-4.92,2.1c-1,.15-1.83.06-.84-1.65s3.3-5.07,5.31-8.28S316.28,119,320.69,114,329,105.48,329.3,104s.44-3.7-.67-4.93-2.22-2.7-4.35-2.28a4.26,4.26,0,0,0-2.7,1.5c-3,3.08-7.39,8.46-9.36,10.8-2.82,3.36-3.91,4.44-7.08,8.51a166.15,166.15,0,0,0-11.64,16c-2.77,4.46-6.56,12.39-2.4,18C294.14,155.61,302.69,153.5,306.71,151.76Zm33.12,12.72h-217l-24.48-.24c-4.82-.46-8.77-.78-12.72-1.92-5.34-1.55-7.81-4-10.08-3.36a4.35,4.35,0,0,0-2.64,2.16,6.05,6.05,0,0,0-.24,6.72c1.51,2,7.41,3.84,10.32,4.8,6.18,2,14.7,2.47,23.28,2.64,9.2.18,19.25.24,27.84.24H327.83c1.86,0,5.23,0,8.16,0,2.07,0,4.26-.14,5-.72a5.91,5.91,0,0,0,2.16-4.8C343.27,167.09,342,164.48,339.83,164.48Z"/><path d="M343.63,84.81H341.5V84h5.19v.77h-2.14V91h-.91Z"/><path d="M353.37,88c-.05-1-.11-2.15-.1-3h0c-.24.82-.53,1.69-.88,2.66L351.11,91h-.69l-1.13-3.33c-.33-1-.61-1.89-.81-2.72h0c0,.87-.07,2-.13,3.1l-.19,3h-.86l.49-7h1.15l1.2,3.39c.29.86.53,1.63.71,2.36h0c.18-.71.43-1.47.74-2.36L352.84,84H354l.44,7h-.88Z"/></svg>